<svg width="662" height="118" viewBox="0 0 662 118" fill="none" xmlns="http://www.w3.org/2000/svg">
<g clip-path="url(#clip0_2509_22847)">
<path d="M132.133 79.9938C136.212 75.4747 138.89 69.8737 139.844 63.8685C140.798 57.8632 139.986 51.711 137.507 46.1562C135.028 40.6014 130.987 35.882 125.875 32.5691C120.763 29.2562 114.797 27.4916 108.7 27.489H108.545C101.534 27.5129 94.7315 29.875 89.2214 34.1992C87.2321 35.7556 85.4359 37.5428 83.8709 39.5232L40.9738 82.3042L45.7822 87.0993L46.9012 88.2152C47.1584 88.634 47.3213 89.1034 47.3787 89.5911C47.4361 90.0788 47.3865 90.5731 47.2336 91.0399C47.0806 91.5066 46.8278 91.9347 46.4927 92.2944C46.1576 92.6542 45.7481 92.9371 45.2926 93.1236L44.2785 93.3648L25.4061 97.8286L4.90753 102.676L4.29263 102.821C3.76031 102.9 3.21716 102.864 2.70025 102.715C2.18333 102.565 1.70482 102.306 1.29735 101.956C0.889886 101.605 0.563057 101.171 0.339165 100.683C0.115274 100.195 -0.000412291 99.6644 1.10403e-06 99.1277C0.000335338 98.9956 0.00811885 98.8636 0.0233148 98.7324L0.221481 97.8606L4.39754 79.709L9.19432 58.8489L9.61688 56.9832C9.84404 56.5805 10.1518 56.2288 10.5211 55.9499C10.8904 55.6709 11.3132 55.4707 11.7634 55.3617C12.2136 55.2527 12.6814 55.2372 13.1378 55.3161C13.5943 55.3951 14.0295 55.5668 14.4166 55.8207L15.3754 56.7768L21.3815 62.7721L63.8211 20.4416L69.941 14.3388C80.6568 5.08528 94.3587 -0.00554414 108.534 4.53099e-06H108.607C122.02 -0.00332366 135.036 4.53904 145.52 12.8821C156.005 21.2251 163.335 32.8735 166.308 45.9167L132.133 79.9938Z" fill="#7EB0B1"/>
<path d="M218.37 17.5677C218.37 17.5967 218.37 17.6287 218.37 17.6577L218.035 19.1108L213.81 37.4891L209.039 58.2271L208.765 59.4216C208.568 59.8756 208.273 60.2808 207.901 60.6082C207.529 60.9357 207.089 61.1773 206.613 61.3161C206.136 61.4548 205.635 61.4872 205.145 61.4109C204.655 61.3346 204.187 61.1515 203.776 60.8746L197.073 54.1905L151.845 99.276L148.992 102.118C138.043 112.337 123.602 118.012 108.607 117.989H108.534C98.4651 117.987 88.5636 115.42 79.7692 110.531C70.9748 105.642 63.5792 98.5924 58.2843 90.052C57.7306 89.1628 57.2002 88.2531 56.6931 87.3319C54.1337 82.6855 52.2181 77.7143 50.9988 72.5543C50.9813 72.4845 50.9667 72.4119 50.9492 72.3421L83.871 39.5234C83.6466 39.814 83.428 40.1046 83.2153 40.3952C79.282 45.7453 77.1553 52.2035 77.1421 58.8374V58.9537C77.1443 67.2692 80.4476 75.2456 86.33 81.1395C92.2124 87.0333 100.195 90.3651 108.534 90.4066H108.7C116.497 90.419 124.019 87.5393 129.805 82.3276C130.623 81.595 131.401 80.8189 132.136 80.0027L166.308 45.9168L177.545 34.7137L171.455 28.6429C171.184 28.2434 171.002 27.7905 170.922 27.3149C170.841 26.8393 170.864 26.3521 170.989 25.8862C171.114 25.4203 171.338 24.9865 171.646 24.6143C171.953 24.2421 172.337 23.94 172.772 23.7286L174.197 23.3886L193.463 18.8318L213.134 14.182L214.46 13.8682H214.637C215.624 13.8682 216.571 14.2592 217.269 14.9551C217.967 15.6511 218.359 16.595 218.359 17.5793" fill="#91C36E"/>
<g style="mix-blend-mode:multiply" opacity="0.2">
<g style="mix-blend-mode:multiply" opacity="0.2">
<g style="mix-blend-mode:multiply" opacity="0.2">
<path style="mix-blend-mode:multiply" opacity="0.2" d="M150.149 15.3732L110.424 54.9883L150.149 94.6033L189.874 54.9883L150.149 15.3732Z" fill="url(#paint0_linear_2509_22847)"/>
</g>
</g>
</g>
<path d="M276.718 111.885L244.37 35.1636H266.227L285.023 86.8925L304.548 35.1636H325.822L291.872 111.885H276.718Z" fill="#7CAFB0"/>
<path d="M358.753 113.338C352.341 113.338 346.562 111.595 341.413 108.107C336.265 104.62 332.161 99.8734 329.101 93.8674C326.041 87.8614 324.511 81.032 324.511 73.3792C324.511 65.5327 326.041 58.6307 329.101 52.6732C332.161 46.7156 336.338 42.0416 341.632 38.6511C346.924 35.2607 352.922 33.5654 359.627 33.5654C365.067 33.5654 369.827 34.6552 373.907 36.8348C377.986 39.0144 381.241 41.8479 383.669 45.3352V35.1638H403.486V111.885H383.523V101.569C380.804 104.959 377.282 107.768 372.959 109.996C368.565 112.24 363.69 113.387 358.753 113.338ZM364.144 96.047C370.066 96.047 374.874 93.9642 378.569 89.7988C382.264 85.6334 384.11 80.1602 384.106 73.3792C384.106 66.5983 382.261 61.1251 378.569 56.9597C374.878 52.7942 370.07 50.7115 364.144 50.7115C358.316 50.7115 353.58 52.7942 349.937 56.9597C346.294 61.1251 344.473 66.5983 344.473 73.3792C344.473 80.1602 346.294 85.6334 349.937 89.7988C353.58 93.9642 358.316 96.047 364.144 96.047Z" fill="#7CAFB0"/>
<path d="M417.762 111.885V4.35889H437.579V111.885H417.762Z" fill="#7CAFB0"/>
<path d="M486.101 113.338C478.232 113.338 471.238 111.619 465.118 108.18C459.109 104.851 454.123 99.9534 450.693 94.0127C447.196 88.0067 445.448 81.1289 445.448 73.3792C445.448 65.7265 447.196 58.8971 450.693 52.8911C454.123 46.9504 459.109 42.0528 465.118 38.7238C471.238 35.2849 478.232 33.5654 486.101 33.5654C493.773 33.5654 500.67 35.2849 506.792 38.7238C512.801 42.0528 517.787 46.9504 521.217 52.8911C524.714 58.8971 526.462 65.7265 526.462 73.3792C526.462 81.1289 524.714 88.0067 521.217 94.0127C517.787 99.9534 512.801 104.851 506.792 108.18C500.672 111.619 493.775 113.338 486.101 113.338ZM486.101 96.047C489.814 96.0952 493.461 95.0598 496.592 93.0682C499.694 91.0921 502.189 88.3018 503.805 85.0037C505.503 81.6132 506.353 77.7384 506.354 73.3792C506.356 69.0201 505.506 65.1452 503.805 61.7548C502.199 58.4468 499.68 55.6643 496.545 53.734C493.409 51.8036 489.786 50.8055 486.101 50.8568C482.116 50.8568 478.57 51.8255 475.464 53.7629C472.346 55.7098 469.826 58.4747 468.178 61.7548C466.43 65.1452 465.556 69.0201 465.556 73.3792C465.556 77.7384 466.43 81.6132 468.178 85.0037C469.836 88.2957 472.353 91.0814 475.464 93.0682C478.572 95.054 482.118 96.047 486.101 96.047Z" fill="#7CAFB0"/>
<path d="M535.497 111.885V35.1637H554.73L555.022 47.8053C557.516 43.6717 560.931 40.1664 565.003 37.5612C569.129 34.8973 573.476 33.5653 578.044 33.5653C579.678 33.5572 581.31 33.6787 582.925 33.9286C584.239 34.1235 585.532 34.4397 586.787 34.8731L581.395 56.669C580.105 56.0076 578.734 55.519 577.315 55.2159C575.692 54.8323 574.03 54.6373 572.361 54.6347C567.599 54.6347 563.592 56.2573 560.34 59.5024C557.088 62.7476 555.461 66.8404 555.459 71.7808V111.885H535.497Z" fill="#7CAFB0"/>
<path d="M617.677 113.338C611.266 113.338 605.486 111.595 600.337 108.107C595.189 104.62 591.085 99.8734 588.025 93.8674C584.965 87.8614 583.435 81.032 583.435 73.3792C583.435 65.5327 584.965 58.6307 588.025 52.6732C591.085 46.7156 595.262 42.0416 600.556 38.6511C605.852 35.2607 611.85 33.5654 618.551 33.5654C623.991 33.5654 628.751 34.6552 632.831 36.8348C636.911 39.0144 640.165 41.8479 642.593 45.3352V35.1638H662.41V111.885H642.448V101.569C639.728 104.959 636.206 107.768 631.884 109.996C627.489 112.241 622.614 113.388 617.677 113.338ZM623.068 96.047C628.992 96.047 633.8 93.9642 637.494 89.7988C641.187 85.6334 643.032 80.1602 643.031 73.3792C643.031 66.5983 641.185 61.1251 637.494 56.9597C633.802 52.7942 628.994 50.7115 623.068 50.7115C617.24 50.7115 612.504 52.7942 608.861 56.9597C605.219 61.1251 603.397 66.5983 603.397 73.3792C603.397 80.1602 605.219 85.6334 608.861 89.7988C612.504 93.9642 617.24 96.047 623.068 96.047Z" fill="#7CAFB0"/>
</g>
<defs>
<linearGradient id="paint0_linear_2509_22847" x1="142.971" y1="48.9396" x2="153.324" y2="59.3211" gradientUnits="userSpaceOnUse">
<stop stop-color="white"/>
<stop offset="0.19" stop-color="#FCFCFC"/>
<stop offset="0.33" stop-color="#F3F3F3"/>
<stop offset="0.45" stop-color="#E3E3E3"/>
<stop offset="0.57" stop-color="#CDCDCD"/>
<stop offset="0.67" stop-color="#B1B1B0"/>
<stop offset="0.77" stop-color="#8E8E8C"/>
<stop offset="0.87" stop-color="#646462"/>
<stop offset="0.96" stop-color="#353533"/>
<stop offset="1" stop-color="#1D1D1B"/>
</linearGradient>
<clipPath id="clip0_2509_22847">
<rect width="662" height="118" fill="white"/>
</clipPath>
</defs>
</svg>
